<?xml version="1.0" standalone="no"?>
<!DOCTYPE svg PUBLIC "-//W3C//DTD SVG 20010904//EN"
 "http://www.w3.org/TR/2001/REC-SVG-20010904/DTD/svg10.dtd">
<svg version="1.0" xmlns="http://www.w3.org/2000/svg"
 width="700.000000pt" height="700.000000pt" viewBox="0 0 700.000000 700.000000"
 preserveAspectRatio="xMidYMid meet">
<metadata>
Created by potrace 1.11, written by Peter Selinger 2001-2013
</metadata>
<g transform="translate(0.000000,700.000000) scale(0.100000,-0.100000)"
fill="#000000" stroke="none">
<path d="M1960 6984 c-52 -7 -108 -15 -125 -18 -16 -3 -43 -8 -60 -11 -156
-29 -415 -140 -485 -208 -32 -32 -46 -79 -36 -129 11 -57 59 -97 136 -113 74
-16 361 -106 489 -155 378 -143 757 -332 1126 -563 341 -213 694 -473 1028
-759 l32 -27 -135 -136 c-74 -75 -948 -949 -1941 -1943 -993 -994 -1825 -1832
-1850 -1862 -37 -47 -70 -108 -110 -205 -18 -44 -28 -141 -24 -228 8 -173 73
-317 200 -442 212 -210 535 -245 800 -88 46 28 504 479 2023 1997 1080 1079
1965 1963 1967 1964 9 9 215 -240 391 -474 525 -697 896 -1410 1090 -2096 25
-88 52 -172 61 -185 34 -52 120 -70 181 -39 92 48 228 387 267 666 11 80 14
462 4 560 -33 332 -132 715 -281 1090 -58 145 -223 484 -299 615 -29 50 -57
99 -64 110 -59 106 -223 348 -345 509 l-108 143 155 154 c173 172 226 236 271
325 47 93 65 175 66 294 0 181 -60 328 -188 456 -175 175 -409 238 -644 174
-148 -41 -205 -81 -430 -306 l-164 -164 -151 114 c-156 117 -425 297 -543 363
-36 21 -96 55 -133 75 -400 227 -941 428 -1346 502 -16 3 -41 8 -55 10 -217
40 -591 54 -770 30z"/>
</g>
</svg>
