<?xml version="1.0" encoding="iso-8859-1"?>
<!-- Generator: Adobe Illustrator 19.0.0, SVG Export Plug-In . SVG Version: 6.00 Build 0)  -->
<svg version="1.1" id="Layer_1" xmlns="http://www.w3.org/2000/svg" xmlns:xlink="http://www.w3.org/1999/xlink" x="0px" y="0px"
	 viewBox="0 0 512.001 512.001" style="enable-background:new 0 0 512.001 512.001;" xml:space="preserve">
<path style="fill:#806749;" d="M14.118,497.885c-18.821-18.821-18.821-49.335,0-68.156L384.816,59.031
	c18.821-18.821,49.335-18.821,68.156,0s18.821,49.335,0,68.156L82.274,497.885C63.453,516.706,32.939,516.706,14.118,497.885z"/>
<g>
	<path style="fill:#6A563D;" d="M452.973,59.031L14.118,497.885c18.821,18.821,49.335,18.821,68.156,0l370.698-370.698
		C471.794,108.366,471.794,77.852,452.973,59.031z"/>
	
		<rect x="279.379" y="164.171" transform="matrix(-0.7071 -0.7071 0.7071 -0.7071 428.7934 546.4686)" style="fill:#6A563D;" width="96.391" height="40.514"/>
</g>
<path style="fill:#898890;" d="M332.758,179.244c75.932,75.932,126.276,161.315,143.744,233.793
	c0.957,3.971,4.188,6.992,8.214,7.678c4.027,0.688,8.077-1.089,10.297-4.518c41.286-63.772,6.62-199.56-96.515-302.694
	C295.432,10.435,159.605-24.33,95.802,16.988c-3.429,2.221-5.206,6.27-4.518,10.298c0.688,4.027,3.708,7.256,7.68,8.213
	C171.442,52.967,256.826,103.31,332.758,179.244z"/>
<path style="fill:#787680;" d="M495.014,416.197c41.286-63.772,6.62-199.56-96.514-302.694l-65.741,65.741
	c75.932,75.932,126.276,161.314,143.744,233.793c0.957,3.971,4.188,6.992,8.214,7.678
	C488.744,421.402,492.794,419.626,495.014,416.197z"/>
<g>
</g>
<g>
</g>
<g>
</g>
<g>
</g>
<g>
</g>
<g>
</g>
<g>
</g>
<g>
</g>
<g>
</g>
<g>
</g>
<g>
</g>
<g>
</g>
<g>
</g>
<g>
</g>
<g>
</g>
</svg>
